<svg width="22" height="27" viewBox="0 0 22 27" fill="none" xmlns="http://www.w3.org/2000/svg">
<path d="M18.5625 11.8125C18.9141 11.8125 19.2437 11.8784 19.5513 12.0103C19.8589 12.1421 20.127 12.3223 20.3555 12.5508C20.584 12.7793 20.7642 13.0474 20.896 13.355C21.0278 13.6626 21.0938 13.9922 21.0938 14.3438V19.4062C21.0938 20.4521 20.896 21.4365 20.5005 22.3594C20.105 23.2822 19.5601 24.0864 18.8657 24.772C18.1714 25.4575 17.3672 25.998 16.4531 26.3936C15.5391 26.7891 14.5547 26.9912 13.5 27C12.2344 27 11.0566 26.7583 9.9668 26.2749C8.87695 25.7915 7.88379 25.106 6.9873 24.2183L0.764648 17.9956C0.518555 17.7495 0.32959 17.4639 0.197754 17.1387C0.065918 16.8135 0 16.4795 0 16.1367C0 15.7676 0.0703125 15.4248 0.210938 15.1084C0.351562 14.792 0.540527 14.5107 0.777832 14.2646C1.01514 14.0186 1.29199 13.834 1.6084 13.7109C1.9248 13.5879 2.26758 13.5176 2.63672 13.5C3.35742 13.5 3.97705 13.7593 4.49561 14.2778L5.90625 15.6753V11.2456C5.3877 10.9995 4.92188 10.6919 4.50879 10.3228C4.0957 9.95361 3.74414 9.53613 3.4541 9.07031C3.16406 8.60449 2.93555 8.10352 2.76855 7.56738C2.60156 7.03125 2.52246 6.47754 2.53125 5.90625C2.53125 5.08887 2.68506 4.32422 2.99268 3.6123C3.30029 2.90039 3.72217 2.27197 4.2583 1.72705C4.79443 1.18213 5.41846 0.760254 6.13037 0.461426C6.84229 0.162598 7.61133 0.00878906 8.4375 0C9.25488 0 10.0195 0.153809 10.7314 0.461426C11.4434 0.769043 12.0718 1.19092 12.6167 1.72705C13.1616 2.26318 13.5835 2.88721 13.8823 3.59912C14.1812 4.31104 14.335 5.08008 14.3438 5.90625C14.3438 6.72363 14.1812 7.50586 13.856 8.25293C13.5308 9 13.0693 9.65479 12.4717 10.2173C12.7793 10.2964 13.0562 10.4282 13.3022 10.6128C13.5483 10.7974 13.7637 11.0259 13.9482 11.2983C14.3438 11.0786 14.7568 10.9688 15.1875 10.9688C15.627 10.9688 16.0356 11.0698 16.4136 11.272C16.7915 11.4741 17.0947 11.7642 17.3232 12.1421C17.7188 11.9224 18.1318 11.8125 18.5625 11.8125ZM4.21875 5.90625C4.21875 6.56543 4.36816 7.19385 4.66699 7.7915C4.96582 8.38916 5.37891 8.88574 5.90625 9.28125V5.90625C5.90625 5.55469 5.97217 5.2251 6.104 4.91748C6.23584 4.60986 6.41602 4.3418 6.64453 4.11328C6.87305 3.88477 7.14111 3.70459 7.44873 3.57275C7.75635 3.44092 8.08594 3.375 8.4375 3.375C8.78906 3.375 9.11865 3.44092 9.42627 3.57275C9.73389 3.70459 10.002 3.88477 10.2305 4.11328C10.459 4.3418 10.6392 4.60986 10.771 4.91748C10.9028 5.2251 10.9688 5.55469 10.9688 5.90625V9.28125C11.4961 8.88574 11.9092 8.38916 12.208 7.7915C12.5068 7.19385 12.6562 6.56543 12.6562 5.90625C12.6562 5.32617 12.5464 4.78125 12.3267 4.27148C12.1069 3.76172 11.8037 3.31787 11.417 2.93994C11.0303 2.56201 10.582 2.25879 10.0723 2.03027C9.5625 1.80176 9.01758 1.6875 8.4375 1.6875C7.85742 1.6875 7.3125 1.79736 6.80273 2.01709C6.29297 2.23682 5.84473 2.54004 5.45801 2.92676C5.07129 3.31348 4.76807 3.76172 4.54834 4.27148C4.32861 4.78125 4.21875 5.32617 4.21875 5.90625ZM19.4062 14.3438C19.4062 14.1152 19.3228 13.9175 19.1558 13.7505C18.9888 13.5835 18.791 13.5 18.5625 13.5C18.2637 13.5 18.0571 13.5835 17.9429 13.7505C17.8286 13.9175 17.7583 14.124 17.7319 14.3701C17.7056 14.6162 17.7012 14.8887 17.7188 15.1875C17.7363 15.4863 17.7363 15.7544 17.7188 15.9917C17.7012 16.229 17.6309 16.4399 17.5078 16.6245C17.3848 16.8091 17.1738 16.8926 16.875 16.875C16.5498 16.875 16.3301 16.7739 16.2158 16.5718C16.1016 16.3696 16.0312 16.106 16.0049 15.7808C15.9785 15.4556 15.9873 15.1172 16.0312 14.7656C16.0752 14.4141 16.084 14.0757 16.0576 13.7505C16.0312 13.4253 15.9653 13.166 15.8599 12.9727C15.7544 12.7793 15.5303 12.6738 15.1875 12.6562C14.8887 12.6562 14.6821 12.7397 14.5679 12.9067C14.4536 13.0737 14.3833 13.2803 14.3569 13.5264C14.3306 13.7725 14.3262 14.0449 14.3438 14.3438C14.3613 14.6426 14.3613 14.9106 14.3438 15.1479C14.3262 15.3853 14.2559 15.5962 14.1328 15.7808C14.0098 15.9653 13.7988 16.0488 13.5 16.0312C13.1748 16.0312 12.9551 15.9302 12.8408 15.728C12.7266 15.5259 12.6562 15.2622 12.6299 14.937C12.6035 14.6118 12.6123 14.2734 12.6562 13.9219C12.7002 13.5703 12.709 13.2319 12.6826 12.9067C12.6562 12.5815 12.5903 12.3223 12.4849 12.1289C12.3794 11.9355 12.1553 11.8301 11.8125 11.8125C11.5137 11.8125 11.3071 11.896 11.1929 12.063C11.0786 12.23 11.0083 12.4365 10.9819 12.6826C10.9556 12.9287 10.9512 13.2012 10.9688 13.5C10.9863 13.7988 10.9863 14.0669 10.9688 14.3042C10.9512 14.5415 10.8809 14.7524 10.7578 14.937C10.6348 15.1216 10.4238 15.2051 10.125 15.1875C9.89648 15.1875 9.69873 15.104 9.53174 14.937C9.36475 14.77 9.28125 14.5723 9.28125 14.3438V5.90625C9.28125 5.67773 9.19775 5.47998 9.03076 5.31299C8.86377 5.146 8.66602 5.0625 8.4375 5.0625C8.20898 5.0625 8.01123 5.146 7.84424 5.31299C7.67725 5.47998 7.59375 5.67773 7.59375 5.90625V16.2817C7.59375 16.4839 7.55859 16.6685 7.48828 16.8354C7.41797 17.0024 7.31689 17.1562 7.18506 17.2969C7.05322 17.4375 6.89941 17.5386 6.72363 17.6001C6.54785 17.6616 6.36328 17.7012 6.16992 17.7188C5.97656 17.7188 5.79199 17.6836 5.61621 17.6133C5.44043 17.543 5.27783 17.4375 5.12842 17.2969L3.2959 15.4644C3.11133 15.2798 2.8916 15.1875 2.63672 15.1875C2.38184 15.1875 2.16211 15.2798 1.97754 15.4644C1.79297 15.6489 1.69629 15.873 1.6875 16.1367C1.6875 16.3916 1.77979 16.6113 1.96436 16.7959L8.18701 23.0317C8.92529 23.77 9.73389 24.3325 10.6128 24.7192C11.4917 25.106 12.4541 25.3037 13.5 25.3125C14.3174 25.3125 15.082 25.1587 15.7939 24.8511C16.5059 24.5435 17.1299 24.1216 17.666 23.5854C18.2021 23.0493 18.624 22.4253 18.9316 21.7134C19.2393 21.0015 19.3975 20.2324 19.4062 19.4062V14.3438Z" fill="white"/>
</svg>
