<svg width="17" height="18" viewBox="0 0 17 18" fill="none" xmlns="http://www.w3.org/2000/svg">
<path d="M5.17394 7.76086H4.43481C4.23878 7.76086 4.05078 7.83874 3.91217 7.97735C3.77355 8.11596 3.69568 8.30397 3.69568 8.49999C3.69568 8.69602 3.77355 8.88402 3.91217 9.02264C4.05078 9.16125 4.23878 9.23913 4.43481 9.23913H5.17394C5.36997 9.23913 5.55797 9.16125 5.69658 9.02264C5.8352 8.88402 5.91307 8.69602 5.91307 8.49999C5.91307 8.30397 5.8352 8.11596 5.69658 7.97735C5.55797 7.83874 5.36997 7.76086 5.17394 7.76086Z" fill="white"/>
<path d="M8.8695 7.76086H8.13037C7.93434 7.76086 7.74634 7.83874 7.60772 7.97735C7.46911 8.11596 7.39124 8.30397 7.39124 8.49999C7.39124 8.69602 7.46911 8.88402 7.60772 9.02264C7.74634 9.16125 7.93434 9.23913 8.13037 9.23913H8.8695C9.06553 9.23913 9.25353 9.16125 9.39214 9.02264C9.53075 8.88402 9.60863 8.69602 9.60863 8.49999C9.60863 8.30397 9.53075 8.11596 9.39214 7.97735C9.25353 7.83874 9.06553 7.76086 8.8695 7.76086Z" fill="white"/>
<path d="M12.5653 7.76086H11.8262C11.6301 7.76086 11.4421 7.83874 11.3035 7.97735C11.1649 8.11596 11.087 8.30397 11.087 8.49999C11.087 8.69602 11.1649 8.88402 11.3035 9.02264C11.4421 9.16125 11.6301 9.23913 11.8262 9.23913H12.5653C12.7613 9.23913 12.9493 9.16125 13.0879 9.02264C13.2266 8.88402 13.3044 8.69602 13.3044 8.49999C13.3044 8.30397 13.2266 8.11596 13.0879 7.97735C12.9493 7.83874 12.7613 7.76086 12.5653 7.76086Z" fill="white"/>
<path d="M5.17394 10.7174H4.43481C4.23878 10.7174 4.05078 10.7952 3.91217 10.9339C3.77355 11.0725 3.69568 11.2605 3.69568 11.4565C3.69568 11.6525 3.77355 11.8405 3.91217 11.9792C4.05078 12.1178 4.23878 12.1956 4.43481 12.1956H5.17394C5.36997 12.1956 5.55797 12.1178 5.69658 11.9792C5.8352 11.8405 5.91307 11.6525 5.91307 11.4565C5.91307 11.2605 5.8352 11.0725 5.69658 10.9339C5.55797 10.7952 5.36997 10.7174 5.17394 10.7174Z" fill="white"/>
<path d="M8.8695 10.7174H8.13037C7.93434 10.7174 7.74634 10.7952 7.60772 10.9339C7.46911 11.0725 7.39124 11.2605 7.39124 11.4565C7.39124 11.6525 7.46911 11.8405 7.60772 11.9792C7.74634 12.1178 7.93434 12.1956 8.13037 12.1956H8.8695C9.06553 12.1956 9.25353 12.1178 9.39214 11.9792C9.53075 11.8405 9.60863 11.6525 9.60863 11.4565C9.60863 11.2605 9.53075 11.0725 9.39214 10.9339C9.25353 10.7952 9.06553 10.7174 8.8695 10.7174Z" fill="white"/>
<path d="M12.5653 10.7174H11.8262C11.6301 10.7174 11.4421 10.7952 11.3035 10.9339C11.1649 11.0725 11.087 11.2605 11.087 11.4565C11.087 11.6525 11.1649 11.8405 11.3035 11.9792C11.4421 12.1178 11.6301 12.1956 11.8262 12.1956H12.5653C12.7613 12.1956 12.9493 12.1178 13.0879 11.9792C13.2266 11.8405 13.3044 11.6525 13.3044 11.4565C13.3044 11.2605 13.2266 11.0725 13.0879 10.9339C12.9493 10.7952 12.7613 10.7174 12.5653 10.7174Z" fill="white"/>
<path d="M5.17394 13.6739H4.43481C4.23878 13.6739 4.05078 13.7518 3.91217 13.8904C3.77355 14.029 3.69568 14.217 3.69568 14.4131C3.69568 14.6091 3.77355 14.7971 3.91217 14.9357C4.05078 15.0743 4.23878 15.1522 4.43481 15.1522H5.17394C5.36997 15.1522 5.55797 15.0743 5.69658 14.9357C5.8352 14.7971 5.91307 14.6091 5.91307 14.4131C5.91307 14.217 5.8352 14.029 5.69658 13.8904C5.55797 13.7518 5.36997 13.6739 5.17394 13.6739Z" fill="white"/>
<path d="M8.8695 13.6739H8.13037C7.93434 13.6739 7.74634 13.7518 7.60772 13.8904C7.46911 14.029 7.39124 14.217 7.39124 14.4131C7.39124 14.6091 7.46911 14.7971 7.60772 14.9357C7.74634 15.0743 7.93434 15.1522 8.13037 15.1522H8.8695C9.06553 15.1522 9.25353 15.0743 9.39214 14.9357C9.53075 14.7971 9.60863 14.6091 9.60863 14.4131C9.60863 14.217 9.53075 14.029 9.39214 13.8904C9.25353 13.7518 9.06553 13.6739 8.8695 13.6739Z" fill="white"/>
<path d="M12.5653 13.6739H11.8262C11.6301 13.6739 11.4421 13.7518 11.3035 13.8904C11.1649 14.029 11.087 14.217 11.087 14.4131C11.087 14.6091 11.1649 14.7971 11.3035 14.9357C11.4421 15.0743 11.6301 15.1522 11.8262 15.1522H12.5653C12.7613 15.1522 12.9493 15.0743 13.0879 14.9357C13.2266 14.7971 13.3044 14.6091 13.3044 14.4131C13.3044 14.217 13.2266 14.029 13.0879 13.8904C12.9493 13.7518 12.7613 13.6739 12.5653 13.6739Z" fill="white"/>
<path d="M15.5217 2.21739H13.4891C13.4401 2.21739 13.3931 2.19792 13.3585 2.16327C13.3238 2.12862 13.3043 2.08162 13.3043 2.03261V0.73913C13.3043 0.543101 13.2265 0.3551 13.0879 0.216486C12.9492 0.0778725 12.7612 0 12.5652 0C12.3692 0 12.1812 0.0778725 12.0426 0.216486C11.904 0.3551 11.8261 0.543101 11.8261 0.73913V4.25C11.8261 4.39702 11.7677 4.53802 11.6637 4.64198C11.5598 4.74594 11.4188 4.80435 11.2717 4.80435C11.1247 4.80435 10.9837 4.74594 10.8798 4.64198C10.7758 4.53802 10.7174 4.39702 10.7174 4.25V2.58696C10.7174 2.48894 10.6785 2.39494 10.6091 2.32563C10.5398 2.25633 10.4458 2.21739 10.3478 2.21739H5.72826C5.67925 2.21739 5.63225 2.19792 5.5976 2.16327C5.56295 2.12862 5.54348 2.08162 5.54348 2.03261V0.73913C5.54348 0.543101 5.46561 0.3551 5.32699 0.216486C5.18838 0.0778725 5.00038 0 4.80435 0C4.60832 0 4.42032 0.0778725 4.2817 0.216486C4.14309 0.3551 4.06522 0.543101 4.06522 0.73913V4.25C4.06522 4.39702 4.00681 4.53802 3.90285 4.64198C3.79889 4.74594 3.65789 4.80435 3.51087 4.80435C3.36385 4.80435 3.22285 4.74594 3.11889 4.64198C3.01493 4.53802 2.95652 4.39702 2.95652 4.25V2.58696C2.95652 2.48894 2.91759 2.39494 2.84828 2.32563C2.77897 2.25633 2.68497 2.21739 2.58696 2.21739H1.47826C1.0862 2.21739 0.7102 2.37314 0.432973 2.65036C0.155745 2.92759 0 3.30359 0 3.69565V16.2609C0 16.6529 0.155745 17.0289 0.432973 17.3062C0.7102 17.5834 1.0862 17.7391 1.47826 17.7391H15.5217C15.9138 17.7391 16.2898 17.5834 16.567 17.3062C16.8443 17.0289 17 16.6529 17 16.2609V3.69565C17 3.30359 16.8443 2.92759 16.567 2.65036C16.2898 2.37314 15.9138 2.21739 15.5217 2.21739ZM15.5217 15.8913C15.5217 15.9893 15.4828 16.0833 15.4135 16.1526C15.3442 16.2219 15.2502 16.2609 15.1522 16.2609H1.84783C1.74981 16.2609 1.65581 16.2219 1.5865 16.1526C1.5172 16.0833 1.47826 15.9893 1.47826 15.8913V7.02174C1.47826 6.92372 1.5172 6.82972 1.5865 6.76042C1.65581 6.69111 1.74981 6.65217 1.84783 6.65217H15.1522C15.2502 6.65217 15.3442 6.69111 15.4135 6.76042C15.4828 6.82972 15.5217 6.92372 15.5217 7.02174V15.8913Z" fill="white"/>
</svg>
